<?xml version="1.0" encoding="utf-8"?>
<!-- Generator: Adobe Illustrator 21.1.0, SVG Export Plug-In . SVG Version: 6.00 Build 0)  -->
<svg version="1.1" id="Layer_1" xmlns="http://www.w3.org/2000/svg" xmlns:xlink="http://www.w3.org/1999/xlink" x="0px" y="0px"
	 viewBox="0 0 515.9 728.5" style="enable-background:new 0 0 515.9 728.5;" xml:space="preserve">
<style type="text/css">
	.st0{fill:#5B5C67;}
	.st1{fill:#E9E8EB;}
	.st2{fill:#DBE8F3;}
	.st3{fill:#F1C0C5;}
</style>
<g>
	<g>
		<path class="st0" d="M278.2,349.5l-0.1-0.3v0c-0.6-2.3-2.7-3.9-5.1-3.9h-30.3c-2.9,0-5.3,2.4-5.3,5.3v28.3c0,2.9,2.4,5.3,5.3,5.3
			h30.4c2.9,0,5.3-2.4,5.3-5.3v-28C278.4,350.5,278.3,350,278.2,349.5z M239.4,350.6c0-1.8,1.5-3.3,3.3-3.3H273
			c1.5,0,2.9,1.1,3.2,2.6l0,0.1c0,0,0,0,0,0l0,0l0,0.1c0,0.1,0,0.3,0,0.5v2.4c0,1.8-1.4,3.2-3.2,3.3h-30.4c-1.8,0-3.3-1.5-3.3-3.3
			V350.6z M276.4,378.9c0,1.8-1.5,3.3-3.3,3.3h-30.4c-1.8,0-3.3-1.5-3.3-3.3v-17.4c0-1.8,1.5-3.3,3.3-3.3h30.5
			c1.8,0,3.2,1.5,3.2,3.3V378.9z"/>
	</g>
	<g>
		<path class="st1" d="M276.3,350.6v2.4c0,1.8-1.4,3.2-3.2,3.3h-30.4c-1.8,0-3.3-1.5-3.3-3.3v-2.4c0-1.8,1.5-3.3,3.3-3.3H273
			c1.5,0,2.9,1.1,3.2,2.6l0,0.1c0,0,0,0,0,0l0,0l0,0.1C276.3,350.2,276.3,350.4,276.3,350.6z"/>
		<path class="st0" d="M276.2,350C276.2,350,276.2,350,276.2,350L276.2,350L276.2,350z"/>
	</g>
	<path class="st2" d="M249.7,368.3h-5c-0.8,0-1.4-0.6-1.4-1.4v-5c0-0.8,0.6-1.4,1.4-1.4h5c0.8,0,1.4,0.6,1.4,1.4v5
		C251.1,367.7,250.5,368.3,249.7,368.3z"/>
	<path class="st2" d="M260.3,368.3h-5c-0.8,0-1.4-0.6-1.4-1.4v-5c0-0.8,0.6-1.4,1.4-1.4h5c0.8,0,1.4,0.6,1.4,1.4v5
		C261.7,367.7,261.1,368.3,260.3,368.3z"/>
	<path class="st2" d="M271.2,368.5h-5c-0.8,0-1.4-0.6-1.4-1.4v-5c0-0.8,0.6-1.4,1.4-1.4h5c0.8,0,1.4,0.6,1.4,1.4v5
		C272.6,367.9,272,368.5,271.2,368.5z"/>
	<path class="st2" d="M249.7,379.3h-5c-0.8,0-1.4-0.6-1.4-1.4v-5c0-0.8,0.6-1.4,1.4-1.4h5c0.8,0,1.4,0.6,1.4,1.4v5
		C251.1,378.6,250.5,379.3,249.7,379.3z"/>
	<path class="st2" d="M260.3,379.3h-5c-0.8,0-1.4-0.6-1.4-1.4v-5c0-0.8,0.6-1.4,1.4-1.4h5c0.8,0,1.4,0.6,1.4,1.4v5
		C261.7,378.6,261.1,379.3,260.3,379.3z"/>
	<path class="st3" d="M268.9,379.5h-0.4c-2,0-3.7-1.7-3.7-3.7v-0.4c0-2,1.7-3.7,3.7-3.7h0.4c2,0,3.7,1.7,3.7,3.7v0.4
		C272.6,377.8,271,379.5,268.9,379.5z"/>
</g>
</svg>
